<?xml version="1.0" encoding="UTF-8" standalone="no"?>
<svg
   version="1.0"
   width="1024.000000pt"
   height="1024.000000pt"
   viewBox="0 0 1024.000000 1024.000000"
   preserveAspectRatio="xMidYMid meet"
   id="svg4"
   sodipodi:docname="quasar_real.svg"
   inkscape:version="1.4.4 (dcaf3e7d9e, 2026-05-05)"
   xmlns:inkscape="http://www.inkscape.org/namespaces/inkscape"
   xmlns:sodipodi="http://sodipodi.sourceforge.net/DTD/sodipodi-0.dtd"
   xmlns="http://www.w3.org/2000/svg"
   xmlns:svg="http://www.w3.org/2000/svg">
  <defs
     id="defs4" />
  <sodipodi:namedview
     id="namedview4"
     pagecolor="#505050"
     bordercolor="#ffffff"
     borderopacity="1"
     inkscape:showpageshadow="0"
     inkscape:pageopacity="0"
     inkscape:pagecheckerboard="1"
     inkscape:deskcolor="#505050"
     inkscape:document-units="pt"
     inkscape:zoom="0.58374023"
     inkscape:cx="681.81012"
     inkscape:cy="682.66667"
     inkscape:window-width="1920"
     inkscape:window-height="1006"
     inkscape:window-x="0"
     inkscape:window-y="0"
     inkscape:window-maximized="1"
     inkscape:current-layer="svg4" />
  <g
     transform="translate(0.000000,1024.000000) scale(0.100000,-0.100000)"
     fill="#000000"
     stroke="none"
     id="g4">
    <path
       d="M4855 9674 c-387 -39 -545 -64 -794 -125 -1556 -382 -2779 -1521 -3270 -3043 -203 -627 -266 -1281 -185 -1926 166 -1332 903 -2522 2014 -3252 660 -434 1395 -685 2194 -749 188 -15 624 -6 801 15 901 111 1696 444 2381 997 731 591 1261 1401 1518 2320 272 973 216 1952 -166 2914 -119 300 -306 645 -502 923 -561 797 -1374 1397 -2308 1703 -287 94 -617 166 -938 204 -128 16 -647 29 -745 19z m-1126 -2054 c655 -335 1108 -572 1125 -590 25 -24 30 -39 34 -87 4 -55 2 -62 -29 -101 -40 -49 -1468 -1346 -1513 -1373 -60 -37 -152 -15 -191 45 -17 26 -701 2442 -711 2512 -13 85 49 154 140 154 44 0 138 -46 1145 -560z m1660 -1235 c251 -53 452 -159 635 -335 161 -155 255 -303 331 -520 49 -142 58 -217 53 -446 -4 -180 -7 -208 -32 -289 -33 -109 -108 -278 -160 -359 l-38 -58 -88 87 -88 88 28 44 c46 72 98 205 126 320 24 97 26 121 21 243 -5 143 -16 195 -71 341 -89 238 -280 447 -511 561 -129 64 -319 110 -455 110 -175 0 -404 -68 -545 -161 l-31 -20 -87 87 c-103 103 -106 91 43 171 153 81 331 138 485 155 77 8 311 -3 384 -19z m-1220 -629 l84 -85 -35 -68 c-71 -137 -120 -323 -120 -463 -1 -111 12 -190 54 -320 54 -169 120 -281 240 -406 200 -208 469 -324 751 -324 163 0 336 45 491 127 l48 25 84 -83 c46 -46 84 -86 84 -89 0 -9 -153 -100 -167 -100 -7 0 -37 -11 -66 -25 -30 -13 -94 -36 -143 -51 -80 -25 -108 -28 -288 -32 -229 -5 -304 4 -446 53 -136 48 -262 113 -360 185 -453 336 -636 942 -441 1467 42 113 124 273 140 273 3 0 44 -38 90 -84z m1144 -95 c262 -91 418 -343 379 -613 -15 -103 -44 -162 -136 -275 -58 -72 -85 -95 -146 -129 -388 -218 -864 89 -827 531 12 134 58 235 157 339 88 92 198 152 315 170 60 9 201 -4 258 -23z m1724 -891 c18 -10 39 -30 48 -44 17 -26 701 -2442 711 -2512 13 -85 -50 -154 -141 -154 -43 0 -151 53 -1144 560 -655 335 -1108 572 -1125 590 -25 24 -30 39 -34 87 -4 55 -2 62 29 101 40 49 1468 1346 1513 1373 40 24 103 24 143 -1z"
       id="path1" />
    <path
       d="M2804 7762 c3 -9 89 -314 191 -677 102 -363 222 -789 267 -947 44 -159 84 -288 88 -288 9 0 1153 1037 1157 1048 3 6 -339 183 -1440 744 -177 90 -266 131 -263 120z"
       id="path2" />
    <path
       d="M5028 5417 c-96 -41 -141 -88 -180 -188 -28 -75 -21 -158 21 -244 36 -73 83 -113 171 -146 71 -27 130 -27 204 1 104 39 170 116 200 234 13 48 13 62 -1 113 -17 68 -55 139 -92 171 -85 75 -224 101 -323 59z"
       id="path3" />
    <path
       d="M6309 3869 c-316 -286 -575 -523 -576 -527 -2 -6 1698 -881 1704 -878 2 2 -77 281 -463 1654 -42 149 -80 272 -84 272 -5 0 -266 -234 -581 -521z"
       id="path4" />
  </g>
  <path
     style="fill:#0a141c;fill-opacity:1;stroke-width:1.71309"
     d="M 629.56085,1286.2627 C 517.72965,1272.953 429.77022,1241.1361 343.4747,1182.7791 173.03086,1067.5171 71.16882,869.0033 77.62562,664.67921 85.658023,410.49554 251.42199,187.94858 492.82649,107.24991 534.35541,93.367284 575.60391,84.475085 625.27813,78.696483 c 36.39781,-4.234158 106.77431,-2.597187 143.89962,3.347133 96.46712,15.445837 180.37194,48.232904 256.10705,100.077674 144.0129,98.5846 235.3557,248.79302 260.6321,428.59556 4.3326,30.82002 4.3281,111.8397 -0.01,143.04308 -23.6299,170.04658 -106.83,313.55797 -239.6248,413.32777 -86.07179,64.6664 -191.90827,106.2181 -301.94617,118.5448 -14.10189,1.5797 -102.71118,2.0662 -114.77708,0.6302 z m 397.70895,-195.8804 c 1.4087,0 4.8147,-2.2534 7.5688,-5.0075 3.8447,-3.8447 5.0075,-6.5792 5.0075,-11.7758 0,-6.9893 -14.711,-61.1351 -57.57533,-211.91435 -31.60798,-111.18384 -36.08881,-125.88471 -39.52799,-129.68496 -4.79768,-5.30138 -14.33739,-7.24022 -21.18232,-4.30507 -5.79059,2.48306 -53.06009,44.42242 -147.24344,130.64022 -58.6287,53.67019 -61.67925,56.90704 -61.64601,65.41108 0.0544,13.92272 -6.03591,10.0961 116.46492,73.17627 100.76699,51.88861 179.83797,91.61861 185.76057,93.33731 2.887,0.8377 6.2757,1.2081 7.5305,0.823 1.2548,-0.3851 3.4341,-0.7002 4.8428,-0.7002 z M 741.7683,842.91757 c 18.00933,-6.59559 34.12307,-14.62544 37.48974,-18.68204 1.33917,-1.6136 -1.14289,-5.07469 -9.79974,-13.66521 l -11.59313,-11.50429 -13.27599,6.13389 c -21.12598,9.7608 -36.58722,13.19912 -59.35288,13.19912 -14.49641,0 -23.18653,-0.93373 -32.89689,-3.5347 -39.10957,-10.47572 -72.52556,-37.71765 -89.6624,-73.09604 -19.4073,-40.06568 -19.83946,-75.71599 -1.4372,-118.56092 l 6.2367,-14.52054 -10.87907,-10.97663 c -5.98348,-6.03713 -11.85634,-10.97663 -13.05079,-10.97663 -2.94319,0 -14.90212,24.17937 -21.01013,42.47969 -19.2443,57.65818 -4.45656,123.80858 37.76743,168.94616 18.18554,19.44039 35.66727,31.4103 61.54799,42.14249 22.42846,9.30059 28.32695,10.15313 66.81054,9.65645 l 35.11836,-0.45323 z m 90.45415,-73.34231 c 3.91806,-6.84788 10.38322,-20.91664 14.36704,-31.26391 l 7.24331,-18.81323 0.66783,-31.54241 c 0.77043,-36.388 -0.45857,-44.8833 -10.06132,-69.54752 -20.83708,-53.519 -69.63795,-94.01922 -126.89341,-105.30982 -5.31362,-1.04783 -20.34599,-2.01818 -33.40527,-2.15632 -20.96993,-0.22183 -25.74567,0.2929 -40.87505,4.40562 -18.61474,5.06018 -55.20879,21.92307 -56.84863,26.19641 -0.67749,1.76551 2.84814,6.54701 10.55107,14.30942 l 11.56855,11.65787 9.6556,-5.73277 c 25.01563,-14.85245 63.18922,-21.41364 91.03193,-15.64635 30.87299,6.39497 48.91221,16.02777 71.22147,38.0317 17.86476,17.62025 27.25637,32.23485 35.32354,54.96818 4.77092,13.44449 5.50698,17.96633 6.16137,37.85102 0.67847,20.61685 0.34544,23.96896 -3.826,38.51135 -2.51304,8.76089 -7.63958,22.0634 -11.39231,29.56113 l -6.82316,13.63227 11.57961,11.669 c 6.36877,6.41798 12.04097,11.66903 12.60485,11.66903 0.5639,0 4.23094,-5.6028 8.14898,-12.45067 z M 716.01182,749.38574 c 23.52756,-10.84456 42.20376,-37.01828 44.06925,-61.76072 1.69431,-22.47238 -5.21236,-41.48953 -21.12834,-58.17577 -12.57825,-13.187 -26.46057,-20.03991 -44.8237,-22.12694 -24.03083,-2.73118 -41.71978,2.89179 -59.00022,18.75499 -33.23912,30.51304 -33.43696,81.64935 -0.42868,110.80766 16.06111,14.18782 31.73399,19.61085 54.19095,18.75084 12.4068,-0.47514 16.77674,-1.4822 27.12074,-6.25006 z M 444.1738,637.47119 c 5.42781,-2.33181 54.25672,-45.71734 146.84251,-130.4727 58.6287,-53.67019 61.67925,-56.90704 61.64602,-65.41108 -0.0544,-13.9216 6.06992,-10.07326 -116.46492,-73.18282 -110.18665,-56.74983 -179.84541,-91.60052 -186.86944,-93.4919 -12.46258,-3.35584 -23.84073,4.91721 -23.84073,17.3346 0,6.50546 15.37241,62.94885 57.57532,211.40139 38.81336,136.52943 36.43443,129.61887 46.06601,133.81653 6.60256,2.87753 8.35945,2.87823 15.04523,0.006 z"
     id="path6"
     transform="scale(0.75)" />
  <path
     style="fill:#0a141c;fill-opacity:1;stroke-width:1.71309"
     d="M 949.05228,1014.2127 C 868.59639,973.48159 768.4418,921.14807 767.91332,919.56263 c -0.30263,-0.90789 30.50097,-29.80091 68.45245,-64.20671 82.36143,-74.66667 81.36957,-73.79842 82.36772,-72.10267 1.68967,2.87058 30.62247,104.63995 67.9567,239.03365 1.76674,6.3599 2.6935,11.5354 2.05946,11.5012 -0.63405,-0.034 -18.49787,-8.8431 -39.69737,-19.5754 z"
     id="path7"
     transform="scale(0.75)" />
  <path
     style="fill:#0a141c;fill-opacity:1;stroke-width:1.71309"
     d="m 672.54355,719.37263 c -16.53223,-6.0573 -26.69325,-20.70341 -26.65398,-38.41905 0.0534,-24.06956 18.85488,-41.11373 42.94331,-38.92947 15.06475,1.36602 24.82944,7.84123 31.49554,20.88549 6.69101,13.09298 6.79485,23.79566 0.35272,36.35347 -9.37489,18.27474 -29.82674,26.81853 -48.13759,20.10956 z"
     id="path8"
     transform="scale(0.75)" />
  <path
     style="fill:#0a141c;fill-opacity:1;stroke-width:1.71309"
     d="m 446.60921,582.15912 c -1.183,-1.91414 -9.55415,-31.03622 -42.26501,-147.03407 -15.14467,-53.70539 -27.96879,-99.03218 -28.49805,-100.72619 -0.91135,-2.917 -0.61475,-2.93534 5.60331,-0.34654 6.72903,2.80152 178.49495,90.42171 204.07103,104.09946 l 14.20471,7.5965 -45.04034,40.97886 c -24.7722,22.53837 -56.98917,51.7009 -71.59327,64.80563 -14.6041,13.10474 -28.58829,25.67826 -31.07599,27.94118 -2.48769,2.26291 -4.92057,3.47124 -5.40639,2.68517 z"
     id="path9"
     transform="scale(0.75)" />
  <path
     style="fill:#ffffff;stroke:none;stroke-width:1.71309;fill-opacity:1"
     d="m 428.3712,634.99222 c -4.00589,-2.14838 -6.58769,-5.2464 -8.20894,-9.85027 -3.02945,-8.60275 -55.02574,-190.70195 -76.51905,-267.98174 -9.04358,-32.51647 -16.44288,-61.64472 -16.44288,-64.72945 0,-7.50671 4.19281,-13.47544 11.05744,-15.74098 4.66273,-1.53883 7.23036,-1.23862 14.84923,1.7362 9.66234,3.77271 135.90097,67.42808 210.53042,106.1592 89.97216,46.69366 87.33707,44.98412 87.33707,56.6606 0,8.80194 2.04421,6.73907 -86.54451,87.33427 -114.12684,103.82897 -120.8155,109.54626 -128.15836,109.54626 -1.13111,0 -4.6863,-1.41034 -7.90042,-3.13409 z m 63.59124,-88.66454 c 62.69727,-56.518 108.431,-98.48382 108.9839,-100.00494 0.80379,-2.21135 -5.16051,-5.40927 -109.28929,-58.5985 -106.66951,-54.48703 -115.97225,-59.04322 -117.4783,-57.53717 -0.54895,0.54895 14.09958,54.44931 32.5523,119.77857 43.38037,153.58212 38.25554,137.25431 42.21067,134.48403 1.80237,-1.26244 21.1617,-18.41733 43.02072,-38.12199 z"
     id="path22"
     transform="scale(0.75)" />
  <path
     style="fill:#ffffff;stroke:none;stroke-width:1.71309;fill-opacity:1"
     d="m 644.97867,846.3726 c -12.54931,-3.49698 -25.63273,-8.88421 -41.06993,-16.91095 -65.66816,-34.14489 -101.74937,-115.96133 -83.17206,-188.59791 3.69334,-14.44084 15.29604,-42.15425 20.46999,-48.89323 l 3.21315,-4.18507 10.77676,10.41599 10.77676,10.416 -6.35652,13.90582 c -19.506,42.67226 -17.33681,89.25397 6.06069,130.14854 6.92482,12.10333 28.32537,34.60122 41.30886,43.42704 24.29808,16.51718 48.57792,23.94785 78.24993,23.94785 22.93644,0 39.68298,-3.72065 59.93466,-13.31594 l 12.82466,-6.07637 10.23635,10.59089 10.23635,10.5909 -4.21701,3.47752 c -4.99942,4.12272 -21.77948,11.9965 -38.47883,18.0556 -11.13183,4.039 -14.5096,4.38822 -47.11,4.87057 -26.12803,0.38658 -37.31112,-0.0914 -43.68381,-1.86725 z"
     id="path23"
     transform="scale(0.75)" />
  <path
     style="fill:#ffffff;stroke:none;stroke-width:1.71309;fill-opacity:1"
     d="m 664.33265,751.30884 c -37.236,-11.9058 -59.3785,-49.00522 -50.97971,-85.41575 6.02546,-26.12167 31.56514,-51.34179 57.65947,-56.93802 12.89314,-2.76509 33.77596,0.34037 46.92546,6.97821 31.84909,16.07737 47.93177,52.59753 37.67521,85.55194 -4.07279,13.08588 -19.41081,33.69074 -30.59206,41.09689 -17.22692,11.41065 -41.41584,14.88891 -60.68837,8.72673 z m 39.21764,-32.39687 c 9.78663,-4.99277 18.74313,-15.72387 21.84697,-26.17561 3.43119,-11.5541 3.3716,-13.19538 -0.89295,-24.59342 -6.58274,-17.59396 -17.74807,-26.20669 -36.1351,-27.87397 -24.90098,-2.25794 -44.2979,15.75536 -44.20946,41.05593 0.071,20.32518 10.61376,34.34992 30.78692,40.95512 6.61386,2.16554 21.1005,0.45975 28.60362,-3.36805 z"
     id="path24"
     transform="scale(0.75)" />
  <path
     style="fill:#ffffff;stroke:none;stroke-width:1.71309;fill-opacity:1"
     d="M 812.44184,769.61849 801.75916,758.84 l 6.76529,-13.67512 c 20.05273,-40.53387 20.99653,-82.18848 2.7567,-121.66621 -14.4203,-31.21085 -37.66141,-54.45856 -68.35711,-68.37654 -22.20057,-10.06613 -31.96943,-12.06067 -58.54428,-11.95315 -21.46681,0.0869 -25.51112,0.59822 -38.54454,4.87355 -8.0087,2.62707 -19.85546,7.53962 -26.32613,10.91677 l -11.76486,6.14026 -10.34129,-10.69947 c -11.91572,-12.32842 -12.05687,-11.78966 5.60501,-21.39412 13.76657,-7.48621 43.15252,-17.41954 58.93858,-19.92301 27.33453,-4.3349 69.37981,2.37631 96.19165,15.354 41.72406,20.1956 72.64795,55.58105 89.12226,101.98044 4.56907,12.86861 4.90566,15.7053 5.51713,46.49626 0.77213,38.88069 -0.9959,47.65932 -15.79207,78.4107 -13.46872,27.99245 -11.88262,27.06872 -24.54366,14.29413 z"
     id="path25"
     transform="scale(0.75)" />
  <path
     style="fill:#ffffff;stroke:none;stroke-width:1.71309;fill-opacity:1"
     d="m 1007.2974,1084.7275 c -13.5438,-5.9169 -135.09263,-67.4051 -204.71438,-103.55931 -91.27134,-47.39677 -88.22417,-45.41857 -88.22417,-57.27414 0,-8.82003 -4.97273,-3.81543 86.72842,-87.28452 96.30554,-87.66014 118.9033,-107.43055 124.09835,-108.57157 6.77945,-1.48902 16.65652,3.17638 18.91932,8.93648 2.35543,5.9959 55.54613,191.91072 77.59066,271.19866 9.0406,32.5165 16.4374,61.6447 16.4374,64.7295 0,7.3476 -4.0879,13.3518 -10.6472,15.6384 -6.8275,2.3801 -5.3894,2.6517 -20.1884,-3.8135 z m -16.36435,-53.0186 c -2.9735,-13.5839 -69.09748,-247.64579 -70.93998,-251.10927 -1.37059,-2.57638 -6.23913,1.64767 -92.40746,80.17475 -30.53197,27.82445 -57.51315,52.26686 -59.95818,54.31649 -2.97009,2.48979 -3.87694,4.29885 -2.73241,5.45083 2.63505,2.65219 223.21691,116.6379 225.83583,116.7007 0.78151,0.019 0.8725,-2.4713 0.2022,-5.5335 z"
     id="path26"
     transform="scale(0.75)" />
</svg>
